<?xml version="1.0" encoding="UTF-8"?>
<svg id="Layer_1" xmlns="http://www.w3.org/2000/svg" version="1.1" viewBox="0 0 360 360">
  <!-- Generator: Adobe Illustrator 30.1.0, SVG Export Plug-In . SVG Version: 2.1.1 Build 136)  -->
  <defs>
    <style>
      .st0 {
        fill: #95202e;
      }
    </style>
  </defs>
  <path class="st0" d="M253.71,134.64c-10.77-1.38-23.69,3.84-36.37,14.68-13.68,11.7-26.77,29.38-38.96,52.43-16.98-3.33-34.3-9.67-49.8-15.35-1.41-.52-2.82-1.03-4.2-1.54,11.56-12.08,23.02-28.26,34.21-48.33,12.94,1.32,31.33-1.91,55.98-17.36,13.45-8.43,23.9-18.33,30.21-28.63,5.87-9.57,8.1-19.41,6.28-27.7-2.09-9.51-9.14-15.92-18.87-17.17-10.76-1.38-23.69,3.84-36.37,14.68-4.74,4.06-9.42,8.82-14,14.28-8.6-3.89-20.68-5.73-36.52-.1-11.53,4.1-19.18,13.45-20.45,25.01-1.34,12.25,4.62,24.12,15.58,30.99,1.52.95,3.32,1.92,5.41,2.81-11.47,20.12-23.1,35.81-34.7,46.82-18.11-6.1-32.57-9.07-42.11-2.57-6.78,4.62-9.94,11.73-8.26,18.55,1.74,7.06,8.12,12.06,16.64,13.04,10.73,1.24,23.63-3.94,36.56-14.61,3.38,1.2,6.82,2.46,10.23,3.71,14.92,5.47,31.4,11.5,48.02,15.14-13.99,26.17-28.25,45.78-42.45,58.32-16.6-7.6-29.97-11.51-39.24-5.19-6.78,4.62-9.94,11.73-8.26,18.55,1.74,7.06,8.12,12.06,16.64,13.04,9.63,1.11,21.03-2.95,32.62-11.52,3.62,1.75,7.22,3.55,10.65,5.27,16.65,8.34,35.53,17.79,52.79,21.48,5.07,1.08,9.84,1.62,14.3,1.62,14.31,0,25.51-5.56,33.38-16.61,2.03-2.85,1.37-6.81-1.48-8.84-2.85-2.03-6.81-1.37-8.84,1.48-15.49,21.73-46.09,8.75-84.48-10.48-1.97-.99-3.91-1.96-5.82-2.91,14.67-14.15,29.18-34.98,43.25-61.91,4.99.66,9.96,1.03,14.87,1.03,12.48,0,24.56-2.38,35.6-8.48.05-.03.09-.07.15-.1.05-.03.11-.05.16-.08,13.45-8.43,23.9-18.33,30.21-28.63,5.87-9.57,8.1-19.41,6.28-27.7-2.09-9.51-9.14-15.92-18.87-17.17ZM184.66,91.64c4.32,4.1,6.34,8.32,6.41,8.46,1.45,3.17,5.18,4.58,8.36,3.15,3.19-1.44,4.61-5.19,3.18-8.38-.14-.32-3.21-7.02-10.09-13.22,16.66-19.35,30.69-24.35,38.08-23.41,4.37.56,7.17,3.09,8.1,7.32,2.26,10.3-6.4,27.55-30.85,42.88-18.57,11.64-32.55,15.32-42.57,15.61.21-.41.42-.82.63-1.23,6.38-12.53,12.68-22.81,18.75-31.17ZM137.47,100.94c.74-6.72,5.15-11.99,12.09-14.46,5.31-1.89,10.29-2.83,14.92-2.83,3.28,0,6.38.47,9.29,1.42-6.59,9.22-12.99,19.9-19.15,31.99-.87,1.71-1.74,3.4-2.62,5.06-2.04-.74-3.64-1.57-4.82-2.31-6.8-4.27-10.52-11.5-9.71-18.87ZM78.88,196.6c-3.08-.35-5.35-1.72-5.79-3.48-.39-1.57.77-3.46,3.09-5.04,1.53-1.04,3.71-1.5,6.39-1.5,4.43,0,10.24,1.25,16.75,3.16-10.53,6.96-17.56,7.2-20.45,6.87ZM100.39,285.57c-3.08-.35-5.35-1.72-5.79-3.48-.39-1.57.77-3.46,3.09-5.04.99-.68,2.36-.98,4.02-.98,4.03,0,9.81,1.79,16.26,4.42-8.95,5.22-14.96,5.39-17.58,5.08ZM229.52,197.3c-11.21,6.14-24.21,7.59-37.81,6.39,25.87-47.08,49.87-57.82,60.4-56.47,4.37.56,7.17,3.09,8.1,7.32,2.26,10.28-6.36,27.47-30.68,42.77Z"/>
  <path class="st0" d="M112.27,23.56c.35,0,.69-.08,1.04-.21,1.36-.59,1.98-2.16,1.42-3.5-.59-1.36-2.16-2-3.52-1.42-1.33.56-1.97,2.14-1.39,3.5.43,1.01,1.42,1.63,2.46,1.63Z"/>
  <path class="st0" d="M93.26,33.09c.45,0,.91-.13,1.33-.37,1.28-.75,1.71-2.38.96-3.63-.75-1.28-2.38-1.74-3.63-.99-1.28.75-1.71,2.38-.99,3.66.51.85,1.39,1.33,2.32,1.33Z"/>
  <path class="st0" d="M102.63,28.01c.4,0,.8-.08,1.17-.27,1.33-.67,1.84-2.27,1.2-3.58-.67-1.33-2.27-1.87-3.58-1.2-1.33.67-1.87,2.27-1.2,3.58.48.93,1.41,1.47,2.4,1.47Z"/>
  <path class="st0" d="M84.24,38.69c.51,0,1.02-.13,1.47-.43,1.23-.83,1.55-2.48.75-3.71-.83-1.23-2.48-1.55-3.71-.75-1.23.83-1.55,2.48-.72,3.71.51.77,1.33,1.17,2.21,1.17Z"/>
  <path class="st0" d="M163.65,10.56c.08,0,.16-.03.24-.03,1.47-.13,2.54-1.44,2.4-2.91-.13-1.47-1.44-2.54-2.91-2.4-1.47.13-2.54,1.44-2.4,2.91.13,1.39,1.28,2.43,2.67,2.43Z"/>
  <path class="st0" d="M142.62,13.84c.19,0,.37-.03.56-.08,1.44-.32,2.35-1.73,2.06-3.18-.32-1.44-1.76-2.35-3.2-2.03-1.44.32-2.35,1.73-2.03,3.18.29,1.25,1.39,2.11,2.62,2.11Z"/>
  <path class="st0" d="M132.29,16.46c.27,0,.51-.05.75-.11,1.41-.43,2.24-1.89,1.82-3.31-.4-1.41-1.87-2.24-3.28-1.84-1.41.43-2.24,1.9-1.84,3.31.35,1.17,1.42,1.95,2.56,1.95Z"/>
  <path class="st0" d="M153.08,11.87c.13,0,.27-.03.4-.03,1.47-.24,2.46-1.6,2.24-3.04-.24-1.47-1.6-2.48-3.07-2.24-1.44.24-2.43,1.6-2.22,3.04.21,1.33,1.33,2.27,2.64,2.27Z"/>
  <path class="st0" d="M122.14,19.69c.32,0,.61-.05.91-.16,1.39-.48,2.11-2,1.63-3.39-.51-1.39-2.03-2.14-3.42-1.63-1.39.48-2.11,2.03-1.63,3.42.4,1.09,1.41,1.76,2.51,1.76Z"/>
  <path class="st0" d="M52.05,66.4c.72,0,1.44-.29,1.95-.88,1.01-1.07.93-2.78-.16-3.76-1.09-.99-2.78-.91-3.76.19-1.01,1.09-.93,2.77.16,3.76.51.48,1.17.69,1.82.69Z"/>
  <path class="st0" d="M21.65,110.41c.37.16.75.24,1.12.24,1.01,0,1.98-.56,2.43-1.55.61-1.33.03-2.94-1.31-3.55-1.36-.61-2.94-.03-3.55,1.33-.61,1.33-.03,2.91,1.31,3.52Z"/>
  <path class="st0" d="M11.56,140.71c.21.05.45.08.64.08,1.2,0,2.3-.8,2.59-2.03h.03c.35-1.41-.53-2.88-1.95-3.23-1.44-.35-2.88.51-3.26,1.95-.35,1.44.53,2.88,1.95,3.23Z"/>
  <path class="st0" d="M17.67,120.29c.32.13.64.19.96.19,1.07,0,2.08-.64,2.48-1.71.53-1.36-.16-2.91-1.52-3.44-1.39-.53-2.94.16-3.44,1.52-.53,1.39.13,2.94,1.52,3.44Z"/>
  <path class="st0" d="M14.31,130.43c.27.08.53.11.8.11,1.12,0,2.19-.72,2.54-1.87.45-1.39-.35-2.88-1.73-3.34-1.42-.45-2.91.32-3.36,1.73-.43,1.41.35,2.91,1.76,3.36Z"/>
  <path class="st0" d="M7.26,172.31h.16c1.39,0,2.56-1.09,2.64-2.51.11-1.47-1.04-2.72-2.51-2.83-1.47-.08-2.72,1.04-2.8,2.51-.08,1.49,1.01,2.75,2.51,2.83Z"/>
  <path class="st0" d="M9.48,151.15c.16.03.32.05.48.05,1.28,0,2.4-.91,2.62-2.19.27-1.44-.67-2.86-2.14-3.12-1.44-.24-2.83.72-3.1,2.16-.27,1.44.69,2.83,2.13,3.1Z"/>
  <path class="st0" d="M8.04,161.69c.11.03.21.03.32.03,1.33,0,2.48-.99,2.64-2.35.19-1.47-.85-2.8-2.32-2.96-1.47-.19-2.78.85-2.96,2.32-.19,1.47.85,2.8,2.32,2.96Z"/>
  <path class="st0" d="M7.1,182.96c1.47,0,2.67-1.2,2.67-2.67s-1.2-2.67-2.67-2.67-2.67,1.2-2.67,2.67,1.2,2.67,2.67,2.67Z"/>
  <path class="st0" d="M59.45,58.74c.67,0,1.33-.24,1.84-.75,1.07-1.04,1.09-2.72.05-3.76-1.02-1.07-2.7-1.09-3.76-.05-1.07,1.01-1.07,2.72-.05,3.76.53.53,1.23.8,1.92.8Z"/>
  <path class="st0" d="M75.57,44.89c.56,0,1.12-.19,1.63-.56,1.15-.88,1.39-2.56.51-3.74-.91-1.18-2.59-1.42-3.74-.51-1.17.88-1.42,2.56-.53,3.74.53.69,1.33,1.07,2.13,1.07Z"/>
  <path class="st0" d="M45.11,74.49c.8,0,1.57-.32,2.08-.99.93-1.15.75-2.83-.4-3.76-1.15-.91-2.83-.72-3.76.43-.91,1.15-.72,2.83.43,3.74.48.4,1.07.59,1.66.59Z"/>
  <path class="st0" d="M38.71,83c.83,0,1.65-.4,2.19-1.12.85-1.2.56-2.88-.64-3.74-1.2-.85-2.88-.56-3.71.64-.85,1.2-.59,2.88.61,3.74.48.32,1.01.48,1.55.48Z"/>
  <path class="st0" d="M31.42,91.49c.45.27.93.4,1.41.4.88,0,1.76-.45,2.27-1.28.77-1.23.4-2.88-.85-3.66-1.25-.77-2.91-.4-3.68.85-.77,1.25-.4,2.91.85,3.68Z"/>
  <path class="st0" d="M26.24,100.8c.4.21.85.32,1.28.32.93,0,1.87-.51,2.35-1.41.69-1.31.19-2.91-1.09-3.63-1.31-.69-2.91-.19-3.63,1.12v-.03c-.69,1.31-.19,2.94,1.09,3.63Z"/>
  <path class="st0" d="M67.29,51.56c.61,0,1.23-.21,1.73-.64,1.12-.96,1.25-2.64.29-3.76-.96-1.12-2.64-1.25-3.76-.29-1.12.96-1.25,2.67-.29,3.76.53.61,1.28.93,2.03.93Z"/>
  <path class="st0" d="M326.77,91.25c.51,0,.99-.13,1.42-.4,1.25-.77,1.63-2.43.85-3.68-.77-1.25-2.43-1.63-3.66-.85-1.25.8-1.66,2.43-.85,3.68.51.8,1.36,1.26,2.24,1.26Z"/>
  <path class="st0" d="M174.27,9.86h.08c1.47-.05,2.62-1.28,2.56-2.75-.05-1.47-1.28-2.64-2.75-2.59-1.47.05-2.62,1.28-2.59,2.78.05,1.44,1.26,2.56,2.7,2.56Z"/>
  <path class="st0" d="M320.87,82.41c.53,0,1.09-.16,1.55-.51,1.2-.85,1.49-2.51.64-3.71-.85-1.2-2.53-1.49-3.74-.64-1.2.85-1.47,2.54-.62,3.74.51.72,1.33,1.12,2.16,1.12Z"/>
  <path class="st0" d="M332.13,100.43c.43,0,.85-.08,1.28-.32,1.28-.69,1.76-2.3,1.07-3.6-.72-1.31-2.32-1.79-3.63-1.07-1.28.69-1.76,2.32-1.07,3.6.48.91,1.39,1.39,2.35,1.39Z"/>
  <path class="st0" d="M307.5,65.86c.64,0,1.28-.21,1.79-.69,1.09-.99,1.17-2.67.16-3.76-.99-1.09-2.67-1.15-3.76-.16-1.09.99-1.15,2.67-.16,3.76.51.59,1.25.85,1.98.85Z"/>
  <path class="st0" d="M300.05,58.26c.69,0,1.41-.27,1.92-.83,1.04-1.04.99-2.75-.05-3.76-1.07-1.04-2.78-.99-3.79.05-1.01,1.07-.99,2.75.08,3.79.51.51,1.18.75,1.84.75Z"/>
  <path class="st0" d="M314.43,73.93c.59,0,1.18-.19,1.68-.59,1.15-.93,1.31-2.62.4-3.74-.94-1.17-2.62-1.33-3.76-.4-1.15.91-1.33,2.59-.4,3.74.53.67,1.31.99,2.08.99Z"/>
  <path class="st0" d="M338.59,118.02c.43,1.04,1.42,1.71,2.48,1.71.32,0,.67-.08.99-.19,1.36-.53,2.03-2.08,1.5-3.47-.53-1.36-2.08-2.06-3.44-1.52-1.39.56-2.06,2.11-1.52,3.47Z"/>
  <path class="st0" d="M348.89,158.54c.16,1.36,1.31,2.35,2.64,2.35.11,0,.21-.03.35-.03,1.44-.19,2.48-1.52,2.29-2.99-.19-1.44-1.52-2.48-2.96-2.3-1.47.19-2.51,1.49-2.32,2.96Z"/>
  <path class="st0" d="M349.88,168.98c.08,1.42,1.25,2.51,2.64,2.51h.19c1.47-.11,2.59-1.36,2.48-2.83v-.03c-.08-1.47-1.36-2.56-2.83-2.48-1.47.11-2.59,1.36-2.48,2.83Z"/>
  <path class="st0" d="M347.27,148.18c.24,1.28,1.36,2.19,2.62,2.19.16,0,.32-.03.51-.05,1.44-.27,2.4-1.66,2.11-3.12-.27-1.44-1.66-2.4-3.1-2.11-1.47.27-2.4,1.66-2.13,3.1Z"/>
  <path class="st0" d="M345,137.96c.29,1.2,1.39,2.03,2.59,2.03.21,0,.43-.03.67-.11,1.42-.35,2.27-1.81,1.92-3.23-.37-1.44-1.81-2.3-3.26-1.92-1.42.35-2.27,1.81-1.92,3.23Z"/>
  <path class="st0" d="M342.11,127.9c.35,1.12,1.39,1.84,2.54,1.84.27,0,.53-.03.83-.13,1.39-.43,2.16-1.95,1.71-3.34-.45-1.41-1.95-2.19-3.36-1.73-1.39.45-2.16,1.95-1.71,3.36Z"/>
  <path class="st0" d="M334.48,108.41c.45.96,1.42,1.55,2.43,1.55.37,0,.75-.08,1.12-.27,1.33-.61,1.92-2.22,1.28-3.55-.62-1.33-2.19-1.9-3.52-1.28-1.33.61-1.92,2.19-1.31,3.55Z"/>
  <path class="st0" d="M236.17,19.26c.29.11.59.16.88.16,1.09,0,2.13-.69,2.51-1.79.48-1.42-.24-2.94-1.63-3.42-1.39-.48-2.91.24-3.42,1.66-.48,1.39.27,2.91,1.66,3.39Z"/>
  <path class="st0" d="M226.16,16.11c.24.08.48.11.72.11,1.17,0,2.24-.77,2.59-1.95.4-1.41-.43-2.88-1.87-3.28h.03c-1.44-.4-2.91.4-3.31,1.84-.4,1.42.43,2.88,1.84,3.28Z"/>
  <path class="st0" d="M205.69,11.71c.13.03.27.03.4.03,1.31,0,2.46-.93,2.64-2.27.21-1.47-.77-2.8-2.24-3.04-1.44-.21-2.8.8-3.04,2.24-.21,1.47.8,2.83,2.24,3.04Z"/>
  <path class="st0" d="M215.99,13.6c.19.03.37.05.56.05,1.25,0,2.35-.85,2.61-2.11.32-1.44-.61-2.86-2.03-3.18-1.44-.29-2.88.61-3.17,2.06-.32,1.44.59,2.86,2.03,3.18Z"/>
  <path class="st0" d="M184.82,9.84h.08c1.44,0,2.64-1.15,2.67-2.59.05-1.47-1.12-2.7-2.59-2.75-1.47-.03-2.7,1.12-2.75,2.62-.03,1.47,1.12,2.7,2.59,2.72Z"/>
  <path class="st0" d="M195.28,10.45c.08.03.16.03.24.03,1.39,0,2.54-1.07,2.67-2.46.13-1.47-.96-2.75-2.43-2.88-1.47-.13-2.75.96-2.88,2.43-.13,1.47.93,2.75,2.4,2.88Z"/>
  <path class="st0" d="M255.5,27.4c.4.19.8.27,1.2.27.99,0,1.92-.53,2.37-1.47.67-1.33.13-2.94-1.2-3.58-1.31-.67-2.91-.13-3.58,1.2-.64,1.31-.11,2.91,1.2,3.58Z"/>
  <path class="st0" d="M283.85,44.43c.83,0,1.63-.37,2.13-1.07.91-1.17.67-2.86-.51-3.74-1.18-.88-2.86-.64-3.74.53-.91,1.17-.67,2.86.51,3.74.48.37,1.07.53,1.6.53Z"/>
  <path class="st0" d="M275.14,38.29c.88,0,1.73-.43,2.24-1.2.8-1.23.48-2.88-.75-3.68-1.23-.83-2.91-.48-3.71.75-.8,1.23-.48,2.88.75,3.71.46.29.99.43,1.47.43Z"/>
  <path class="st0" d="M264.76,32.34c.43.24.88.37,1.33.37.91,0,1.82-.48,2.3-1.33.75-1.28.32-2.91-.96-3.66-1.28-.75-2.91-.29-3.66.99-.72,1.28-.29,2.91.99,3.63Z"/>
  <path class="st0" d="M292.17,51.1c.75,0,1.49-.32,2.03-.93.96-1.12.83-2.8-.29-3.76-1.12-.96-2.8-.83-3.76.29-.96,1.12-.83,2.8.29,3.76.51.43,1.12.64,1.74.64Z"/>
  <path class="st0" d="M245.97,23.02c.35.16.7.21,1.04.21,1.04,0,2.03-.61,2.46-1.63.56-1.36-.08-2.94-1.44-3.5-1.36-.59-2.91.05-3.5,1.42-.56,1.36.08,2.94,1.44,3.5Z"/>
  <path class="st0" d="M282.62,315.86c-1.2.88-1.42,2.56-.53,3.74.53.7,1.33,1.04,2.13,1.04.56,0,1.12-.16,1.6-.53,1.17-.88,1.41-2.56.53-3.74-.91-1.17-2.59-1.41-3.74-.51Z"/>
  <path class="st0" d="M274.05,321.92c-1.23.8-1.55,2.46-.75,3.68.53.77,1.36,1.2,2.24,1.2.51,0,1.01-.13,1.47-.45,1.23-.8,1.55-2.46.75-3.68-.83-1.23-2.48-1.57-3.71-.75Z"/>
  <path class="st0" d="M185.38,350.16c-1.47.03-2.62,1.26-2.59,2.75.05,1.44,1.23,2.59,2.67,2.59h.08c1.47-.05,2.64-1.28,2.59-2.78-.05-1.47-1.28-2.61-2.75-2.56Z"/>
  <path class="st0" d="M255.95,332.41v-.03c-1.33.67-1.87,2.27-1.2,3.6.45.93,1.42,1.47,2.4,1.47.4,0,.8-.08,1.17-.27v-.03c1.31-.64,1.87-2.24,1.2-3.58-.67-1.31-2.27-1.84-3.58-1.17Z"/>
  <path class="st0" d="M246.45,336.79c-1.36.56-2,2.13-1.42,3.5.43,1.02,1.42,1.63,2.46,1.63.35,0,.69-.08,1.04-.21,1.36-.59,1.98-2.13,1.42-3.5-.59-1.36-2.13-2-3.5-1.42Z"/>
  <path class="st0" d="M298.5,302.22c-1.04,1.01-1.07,2.7-.05,3.76.53.53,1.23.8,1.92.8s1.33-.24,1.87-.75c1.04-1.02,1.07-2.7.05-3.76-1.04-1.07-2.72-1.09-3.79-.05Z"/>
  <path class="st0" d="M305.81,294.7c-1.01,1.09-.93,2.78.16,3.76.51.48,1.15.7,1.81.7.72,0,1.44-.29,1.98-.85.99-1.09.91-2.78-.19-3.79-1.09-.99-2.78-.91-3.76.19Z"/>
  <path class="st0" d="M290.76,309.27c-1.12.96-1.25,2.64-.29,3.76.53.64,1.28.94,2.03.94.61,0,1.23-.21,1.73-.64,1.12-.96,1.26-2.64.29-3.76-.96-1.12-2.64-1.25-3.76-.29Z"/>
  <path class="st0" d="M195.84,349.49c-1.47.13-2.56,1.44-2.4,2.91.11,1.39,1.28,2.43,2.64,2.43h.24c1.47-.16,2.56-1.44,2.43-2.91-.13-1.47-1.44-2.54-2.91-2.43Z"/>
  <path class="st0" d="M206.25,348.21c-1.47.24-2.46,1.6-2.24,3.07.21,1.31,1.33,2.24,2.64,2.24.13,0,.27,0,.4-.03,1.47-.21,2.46-1.6,2.24-3.04-.24-1.47-1.6-2.46-3.04-2.24Z"/>
  <path class="st0" d="M216.55,346.29v.03c-1.44.29-2.35,1.73-2.06,3.17.27,1.23,1.39,2.08,2.62,2.08.19,0,.37-.03.56-.05,1.44-.32,2.37-1.74,2.05-3.18-.32-1.44-1.76-2.35-3.17-2.06Z"/>
  <path class="st0" d="M236.68,340.55v.03c-1.39.48-2.11,2-1.63,3.39.4,1.09,1.42,1.79,2.54,1.79.29,0,.59-.05.88-.16,1.39-.48,2.11-2,1.63-3.39-.48-1.42-2.03-2.13-3.42-1.66Z"/>
  <path class="st0" d="M226.7,343.76c-1.42.4-2.24,1.87-1.81,3.28.32,1.18,1.39,1.95,2.56,1.95.24,0,.48-.03.72-.11,1.42-.4,2.24-1.87,1.84-3.28-.4-1.41-1.87-2.24-3.31-1.84Z"/>
  <path class="st0" d="M265.16,327.45c-1.28.72-1.71,2.35-.96,3.63.48.85,1.39,1.33,2.3,1.33.45,0,.93-.11,1.33-.35,1.28-.75,1.71-2.38.99-3.66-.75-1.28-2.38-1.71-3.66-.96Z"/>
  <path class="st0" d="M351.94,198.61c-1.47-.19-2.8.85-2.99,2.32-.16,1.47.88,2.8,2.35,2.96.11.03.21.03.32.03,1.33,0,2.48-.99,2.64-2.35.19-1.47-.85-2.8-2.32-2.96Z"/>
  <path class="st0" d="M350.47,209.15c-1.44-.27-2.83.67-3.1,2.14-.27,1.44.69,2.83,2.13,3.09.16.03.32.05.48.05,1.25,0,2.37-.91,2.61-2.19.27-1.44-.67-2.83-2.13-3.1Z"/>
  <path class="st0" d="M345.61,229.86c-1.39-.45-2.88.35-3.34,1.73-.45,1.42.32,2.91,1.74,3.34.27.11.53.13.8.13,1.15,0,2.19-.72,2.56-1.87.43-1.39-.35-2.88-1.76-3.34Z"/>
  <path class="st0" d="M348.39,219.58c-1.44-.37-2.88.51-3.26,1.92-.35,1.44.51,2.88,1.95,3.26.21.05.43.08.64.08,1.2,0,2.3-.83,2.59-2.03.37-1.44-.51-2.88-1.92-3.23Z"/>
  <path class="st0" d="M352.74,187.98c-1.47-.08-2.75,1.04-2.83,2.51-.08,1.47,1.04,2.72,2.51,2.83h.16c1.42,0,2.59-1.09,2.67-2.51.08-1.47-1.04-2.75-2.51-2.83Z"/>
  <path class="st0" d="M352.9,176.77c-1.5,0-2.67,1.2-2.67,2.7,0,.08,0,.16.03.27-.03.08-.03.19-.03.27,0,1.47,1.2,2.67,2.67,2.67s2.67-1.2,2.67-2.67v-.56c0-1.47-1.2-2.67-2.67-2.67Z"/>
  <path class="st0" d="M333.63,259.46c-1.31-.69-2.91-.21-3.63,1.09-.69,1.28-.21,2.91,1.09,3.6.4.21.83.32,1.25.32.96,0,1.9-.51,2.37-1.42.7-1.28.21-2.91-1.09-3.6Z"/>
  <path class="st0" d="M342.25,239.98c-1.39-.53-2.94.16-3.47,1.52-.51,1.36.16,2.91,1.52,3.44.32.13.64.19.99.19,1.07,0,2.08-.64,2.48-1.71.53-1.36-.16-2.91-1.52-3.44Z"/>
  <path class="st0" d="M318.95,278.36c-.85,1.2-.56,2.88.64,3.74.48.32,1.01.48,1.55.48.83,0,1.66-.4,2.16-1.12.85-1.2.59-2.86-.62-3.71-1.2-.88-2.88-.59-3.74.62Z"/>
  <path class="st0" d="M328.42,268.78c-1.26-.77-2.88-.4-3.66.85-.8,1.25-.4,2.91.85,3.68.42.27.93.4,1.41.4.88,0,1.76-.45,2.27-1.28.77-1.23.37-2.88-.88-3.65Z"/>
  <path class="st0" d="M7.61,193.59c1.47-.08,2.59-1.36,2.51-2.83-.11-1.47-1.36-2.59-2.83-2.51-1.49.11-2.62,1.36-2.51,2.86.08,1.42,1.26,2.48,2.67,2.48h.16Z"/>
  <path class="st0" d="M338.24,249.85c-1.33-.61-2.94-.03-3.55,1.31-.61,1.33-.03,2.91,1.31,3.55.35.16.75.24,1.12.24.99,0,1.98-.59,2.43-1.55.61-1.36.03-2.94-1.31-3.55Z"/>
  <path class="st0" d="M312.62,286.74v-.03c-.91,1.17-.72,2.85.4,3.76.51.4,1.09.59,1.68.59.77,0,1.55-.32,2.08-.99.93-1.15.75-2.83-.4-3.76-1.15-.91-2.83-.72-3.76.43Z"/>
  <path class="st0" d="M31.66,268.94c-1.25.77-1.63,2.4-.85,3.66.51.83,1.39,1.28,2.27,1.28.48,0,.99-.13,1.42-.42,1.25-.77,1.63-2.4.85-3.66-.77-1.26-2.43-1.66-3.68-.85Z"/>
  <path class="st0" d="M26.48,259.65c-1.31.7-1.79,2.32-1.09,3.6.48.91,1.41,1.42,2.35,1.42.43,0,.88-.11,1.28-.32,1.28-.7,1.76-2.32,1.07-3.63-.69-1.28-2.32-1.76-3.6-1.07Z"/>
  <path class="st0" d="M37.42,277.88c-1.2.85-1.49,2.51-.64,3.71.53.75,1.36,1.12,2.19,1.12.53,0,1.07-.16,1.55-.48,1.2-.85,1.47-2.53.61-3.74-.85-1.2-2.51-1.47-3.71-.62Z"/>
  <path class="st0" d="M25.41,251.37c-.62-1.33-2.22-1.92-3.55-1.31-1.33.62-1.92,2.19-1.31,3.52v.03c.45.96,1.42,1.55,2.43,1.55.37,0,.75-.08,1.12-.27,1.33-.62,1.92-2.19,1.31-3.52Z"/>
  <path class="st0" d="M43.72,286.45c-1.15.94-1.33,2.62-.4,3.76.53.64,1.31.99,2.08.99.59,0,1.17-.19,1.66-.59,1.15-.94,1.33-2.62.4-3.76-.91-1.15-2.59-1.31-3.74-.4Z"/>
  <path class="st0" d="M50.53,294.64c-1.09.99-1.17,2.67-.16,3.76.51.59,1.23.85,1.95.85.67,0,1.31-.21,1.82-.7,1.09-.99,1.17-2.67.16-3.76-.99-1.09-2.67-1.18-3.76-.16Z"/>
  <path class="st0" d="M21.3,241.74c-.53-1.36-2.08-2.05-3.44-1.52-1.39.53-2.06,2.08-1.52,3.47.4,1.04,1.42,1.68,2.48,1.68.32,0,.64-.05.99-.19,1.36-.53,2.03-2.08,1.49-3.44Z"/>
  <path class="st0" d="M8.76,204.18c1.47-.19,2.51-1.52,2.32-2.99-.19-1.47-1.52-2.51-2.99-2.32-1.44.19-2.48,1.52-2.32,2.99.19,1.33,1.33,2.32,2.67,2.32h.32Z"/>
  <path class="st0" d="M10.55,214.67c1.47-.27,2.43-1.68,2.14-3.12-.27-1.44-1.66-2.4-3.1-2.13-1.47.27-2.4,1.66-2.14,3.12.24,1.28,1.36,2.16,2.62,2.16.16,0,.32,0,.48-.03Z"/>
  <path class="st0" d="M14.95,221.77c-.37-1.42-1.81-2.3-3.26-1.92-1.42.35-2.3,1.81-1.92,3.23.29,1.23,1.39,2.03,2.56,2.03.24,0,.45-.03.67-.08,1.44-.37,2.3-1.81,1.95-3.26Z"/>
  <path class="st0" d="M57.82,302.38c-1.01,1.07-.99,2.75.08,3.76.51.51,1.17.75,1.84.75.72,0,1.41-.27,1.92-.8,1.04-1.07,1.02-2.75-.05-3.76-1.07-1.04-2.75-1.01-3.79.05Z"/>
  <path class="st0" d="M17.81,231.86c-.43-1.42-1.95-2.19-3.34-1.74-1.42.45-2.19,1.95-1.73,3.36.35,1.12,1.41,1.84,2.54,1.84.27,0,.53-.03.8-.13,1.41-.43,2.19-1.92,1.73-3.34Z"/>
  <path class="st0" d="M104.23,332.49h.03c-1.33-.67-2.94-.11-3.6,1.2-.64,1.33-.11,2.91,1.2,3.58h.03c.37.19.77.29,1.17.29.96,0,1.92-.56,2.38-1.49.67-1.31.13-2.91-1.2-3.58Z"/>
  <path class="st0" d="M65.58,309.67c-.96,1.12-.83,2.8.29,3.76.51.43,1.12.64,1.73.64.75,0,1.52-.32,2.03-.94.96-1.12.83-2.8-.29-3.76-1.12-.96-2.8-.83-3.76.29Z"/>
  <path class="st0" d="M133.57,343.83c-1.41-.4-2.91.4-3.31,1.82-.4,1.44.43,2.91,1.84,3.31.24.08.51.11.75.11,1.15,0,2.21-.77,2.56-1.95.4-1.42-.43-2.88-1.84-3.28Z"/>
  <path class="st0" d="M154.04,348.27c-1.47-.21-2.83.77-3.04,2.24-.24,1.44.77,2.8,2.22,3.04.16.03.29.03.43.03,1.28,0,2.43-.96,2.62-2.27.24-1.47-.77-2.83-2.21-3.04Z"/>
  <path class="st0" d="M123.56,340.66h.03c-1.41-.48-2.94.24-3.42,1.63-.48,1.39.24,2.91,1.63,3.42.29.11.59.13.88.13,1.12,0,2.13-.67,2.54-1.79.48-1.39-.24-2.91-1.66-3.39Z"/>
  <path class="st0" d="M174.89,350.16c-1.47-.05-2.7,1.12-2.75,2.59-.03,1.47,1.12,2.7,2.59,2.75,1.49.03,2.72-1.12,2.75-2.59.05-1.47-1.12-2.7-2.59-2.75Z"/>
  <path class="st0" d="M164.42,349.55c-1.47-.13-2.75.93-2.88,2.4-.13,1.47.93,2.78,2.4,2.91h.24c1.39,0,2.54-1.04,2.67-2.43.13-1.47-.96-2.75-2.43-2.88Z"/>
  <path class="st0" d="M143.74,346.37c-1.44-.32-2.86.59-3.18,2.03-.32,1.44.59,2.86,2.03,3.18.19.05.37.05.56.05,1.25,0,2.35-.83,2.62-2.08.32-1.47-.59-2.88-2.03-3.18Z"/>
  <path class="st0" d="M95,327.53c-1.28-.72-2.91-.29-3.63.99-.75,1.28-.32,2.91.96,3.63.43.27.88.38,1.33.38.93,0,1.82-.48,2.32-1.33.75-1.28.29-2.91-.99-3.66Z"/>
  <path class="st0" d="M82.37,322.75c-.8,1.23-.45,2.91.77,3.71.45.29.96.45,1.47.45.85,0,1.71-.43,2.22-1.2.83-1.23.48-2.88-.75-3.71-1.23-.8-2.88-.48-3.71.75Z"/>
  <path class="st0" d="M73.81,316.48c-.91,1.18-.67,2.86.51,3.74.48.37,1.04.53,1.6.53.8,0,1.6-.38,2.13-1.07.88-1.17.64-2.85-.53-3.74-1.17-.88-2.83-.64-3.71.53Z"/>
  <path class="st0" d="M113.79,336.87c-1.36-.56-2.94.05-3.5,1.41-.59,1.36.05,2.94,1.41,3.5.35.16.69.21,1.04.21,1.04,0,2.03-.62,2.46-1.63.56-1.36-.05-2.91-1.41-3.5Z"/>
  <path class="st0" d="M342.72,180.01c0-89.72-73-162.72-162.72-162.72S17.28,90.28,17.28,180.01s73,162.72,162.72,162.72,162.72-73,162.72-162.72ZM180,337.39c-86.78,0-157.38-70.6-157.38-157.38S93.22,22.63,180,22.63s157.38,70.6,157.38,157.38-70.6,157.38-157.38,157.38Z"/>
</svg>